<svg id="Capa_1" enable-background="new 0 0 512 512" height="512" viewBox="0 0 512 512" width="512" xmlns="http://www.w3.org/2000/svg"><g><path d="m512 256c0 91.11-47.6 171.11-119.3 216.48h-273.4c-71.7-45.37-119.3-125.37-119.3-216.48 0-46.22 12.25-89.57 33.68-127 44.12-77.07 127.16-129 222.32-129s178.2 51.93 222.32 129c21.43 37.43 33.68 80.78 33.68 127z" fill="#464f6e"/><path d="m512 256c0 91.11-47.6 171.11-119.3 216.48h-273.4c-71.7-45.37-119.3-125.37-119.3-216.48 0-46.22 12.25-89.57 33.68-127 23.06 40.29 56.76 73.7 97.26 96.41 17.74 9.96 36.78 17.86 56.8 23.38 21.73 6.01 44.62 9.21 68.26 9.21h.01c45.42 0 88.07-11.83 125.06-32.59 40.5-22.71 74.19-56.13 97.25-96.41 21.43 37.43 33.68 80.78 33.68 127z" fill="#303c5a"/><g><path d="m366.671 69.278-5.123 9.538h-.014l-5.123 9.524c-8.268-4.445-17.59-6.796-26.984-6.796h-73.42v-21.646h73.42c12.959 0 25.845 3.247 37.244 9.38z" fill="#fff"/><path d="m361.534 78.816-5.123 9.524c-8.268-4.445-17.59-6.796-26.984-6.796h-73.42v-10.823h73.42c11.342 0 22.338 2.843 32.107 8.095z" fill="#cff6ff"/><path d="m238.691 70.721h34.632v87.071h-34.632z" fill="#cff6ff"/><path d="m256.007 70.721h17.316v87.071h-17.316z" fill="#b0edf7"/><path d="m301.166 135.96v58.085h-90.332v-58.085c0-3.841 3.114-6.955 6.955-6.955h76.422c3.841-.001 6.955 3.113 6.955 6.955z" fill="#20d7fe"/><path d="m301.166 135.96v58.085h-45.162v-65.041h38.207c3.841 0 6.955 3.114 6.955 6.956z" fill="#00b3ff"/><path d="m337.898 170.404v105.311h-163.796v-105.311c0-6.97 5.642-12.612 12.612-12.612h138.572c6.97 0 12.612 5.642 12.612 12.612z" fill="#20d7fe"/><path d="m337.898 170.404v105.311h-122.843v-105.311c0-6.97 5.642-12.612 12.612-12.612h97.619c6.97 0 12.612 5.642 12.612 12.612z" fill="#00b3ff"/><path d="m337.898 170.397v105.324h-81.891v-117.936h69.279c6.965 0 12.612 5.647 12.612 12.612z" fill="#00a4ff"/><g><path d="m392.7 251.22v221.26c-39.55 25.03-86.43 39.52-136.7 39.52s-97.15-14.49-136.7-39.52v-221.26c0-10.28 4.5-19.5 11.64-25.81 6.08-5.38 14.07-8.65 22.82-8.65h204.48c8.76 0 16.76 3.27 22.83 8.65 7.13 6.3 11.63 15.53 11.63 25.81z" fill="#fff"/><path d="m392.7 251.22v221.26c-39.55 25.03-86.42 39.52-136.69 39.52h-.01c-17.94 0-35.45-1.84-52.34-5.36-9.62-6.11-16.01-16.86-16.01-29.1v-226.32c0-.82.03-1.63.09-2.43 1.24-17.91 16.17-32.03 34.37-32.03h136.13c8.76 0 16.76 3.27 22.83 8.65 7.13 6.3 11.63 15.53 11.63 25.81z" fill="#cff6ff"/><path d="m392.7 251.22v221.26c-39.55 25.03-86.42 39.52-136.69 39.52v-295.24h102.23c8.76 0 16.76 3.27 22.83 8.65 7.13 6.3 11.63 15.53 11.63 25.81z" fill="#b0edf7"/></g><g><path d="m316.815 360.738v40.548h-40.548v40.534h-40.534v-40.534h-40.549v-40.548h40.549v-40.549h40.534v40.549z" fill="#de1263"/></g><path d="m309.803 92.236h-107.606c-3.911 0-7.042-3.391-6.58-7.288 3.564-29.899 28.846-53.131 59.611-53.507.245-.014.505-.014.765-.014h.014c31.111 0 56.782 23.377 60.375 53.521.462 3.897-2.669 7.288-6.579 7.288z" fill="#20d7fe"/><path d="m309.803 92.236h-82.396c-2.078 0-3.737-3.391-3.492-7.288 1.876-29.668 15.137-52.785 31.313-53.507.245-.014.505-.014.765-.014h.014c31.111 0 56.782 23.377 60.375 53.521.462 3.897-2.669 7.288-6.579 7.288z" fill="#00b3ff"/><path d="m309.803 92.236h-53.795v-60.808c31.111 0 56.782 23.377 60.375 53.521.461 3.896-2.67 7.287-6.58 7.287z" fill="#00a4ff"/><path d="m316.815 360.738v40.548h-40.548v40.534h-20.26v-121.631h20.26v40.549z" fill="#a30856"/></g><path d="m512 256c0 141.38-114.62 256-256 256s-256-114.62-256-256c0-46.22 12.25-89.57 33.68-127 44.12-77.07 127.16-129 222.32-129s178.2 51.93 222.32 129c21.43 37.43 33.68 80.78 33.68 127z" fill="none"/><path d="m384.828 142.193c-3.651 3.435-8.354 5.151-13.062 5.151-4.706 0-9.414-1.716-13.065-5.151-7.31-6.873-7.966-18.036-1.968-25.679 2.446-3.118 4.744-6.345 7.007-9.6l6.181-8.892c.448-.642 1.148-.965 1.845-.965.699 0 1.396.323 1.842.965l6.181 8.892c2.263 3.255 4.561 6.482 7.007 9.6 5.998 7.643 5.342 18.806-1.968 25.679z" fill="#ffbc00"/><path d="m384.828 142.193c-3.651 3.435-8.354 5.151-13.062 5.151v-50.287c.699 0 1.396.323 1.842.965l6.181 8.892c2.263 3.255 4.561 6.482 7.007 9.6 5.998 7.643 5.342 18.806-1.968 25.679z" fill="#ff9100"/></g></svg>