<svg id="Capa_1" enable-background="new 0 0 512 512" height="512" viewBox="0 0 512 512" width="512" xmlns="http://www.w3.org/2000/svg" xmlns:xlink="http://www.w3.org/1999/xlink"><linearGradient id="SVGID_1_" gradientUnits="userSpaceOnUse" x1="74.981" x2="437.02" y1="437.019" y2="74.98"><stop offset=".1" stop-color="#ff195e"/><stop offset="1" stop-color="#ffc5a3"/></linearGradient><radialGradient id="SVGID_2_" cx="257.353" cy="256" gradientUnits="userSpaceOnUse" r="256"><stop offset="0" stop-color="#ff195e" stop-opacity=".4"/><stop offset=".092" stop-color="#ff2264" stop-opacity=".363"/><stop offset=".2372" stop-color="#ff3874" stop-opacity=".305"/><stop offset=".4174" stop-color="#ff5e8e" stop-opacity=".233"/><stop offset=".6255" stop-color="#ff91b2" stop-opacity=".15"/><stop offset=".8543" stop-color="#ffd2df" stop-opacity=".058"/><stop offset="1" stop-color="#fff" stop-opacity="0"/></radialGradient><linearGradient id="lg1"><stop offset="0" stop-color="#ff6668"/><stop offset=".5" stop-color="#ffc5a3"/><stop offset="1" stop-color="#fff"/></linearGradient><linearGradient id="SVGID_3_" gradientUnits="userSpaceOnUse" x1="70.991" x2="258.604" xlink:href="#lg1" y1="337.995" y2="150.383"/><linearGradient id="SVGID_4_" gradientUnits="userSpaceOnUse" x1="-9.826" x2="317.937" xlink:href="#lg1" y1="509.418" y2="181.654"/><linearGradient id="lg2"><stop offset="0" stop-color="#ff6668"/><stop offset=".1257" stop-color="#ff7f87" stop-opacity=".874"/><stop offset=".2869" stop-color="#ff99a8" stop-opacity=".713"/><stop offset=".453" stop-color="#ffaec2" stop-opacity=".547"/><stop offset=".6238" stop-color="#ffbcd4" stop-opacity=".376"/><stop offset=".8021" stop-color="#ffc5df" stop-opacity=".198"/><stop offset="1" stop-color="#ffc8e3" stop-opacity="0"/></linearGradient><radialGradient id="SVGID_5_" cx="104.761" cy="223.65" gradientTransform="matrix(1 0 0 1.371 0 -82.87)" gradientUnits="userSpaceOnUse" r="182.267" xlink:href="#lg2"/><linearGradient id="SVGID_6_" gradientTransform="matrix(-1 0 0 1 354.61 0)" gradientUnits="userSpaceOnUse" x1="190.768" x2="-86.283" xlink:href="#lg1" y1="428.635" y2="151.584"/><linearGradient id="SVGID_7_" gradientTransform="matrix(-1 0 0 1 354.61 0)" gradientUnits="userSpaceOnUse" x1="383.152" x2="-124.747" xlink:href="#lg1" y1="658.066" y2="150.167"/><radialGradient id="SVGID_8_" cx="1147.371" cy="223.65" gradientTransform="matrix(-1 0 0 1.371 1554.61 -82.87)" gradientUnits="userSpaceOnUse" r="182.267" xlink:href="#lg2"/><radialGradient id="SVGID_9_" cx="286.12" cy="455.537" gradientUnits="userSpaceOnUse" r="35.957"><stop offset="0" stop-color="#ffc5a3"/><stop offset=".1856" stop-color="#ffba9c"/><stop offset=".5111" stop-color="#ff9d8a"/><stop offset=".9354" stop-color="#ff6e6d"/><stop offset="1" stop-color="#ff6668"/></radialGradient><radialGradient id="SVGID_10_" cx="225.88" cy="455.537" gradientUnits="userSpaceOnUse" r="35.957"><stop offset="0" stop-color="#ffc5a3"/><stop offset=".2951" stop-color="#ffad94"/><stop offset=".9165" stop-color="#ff6f6e"/><stop offset="1" stop-color="#ff6668"/></radialGradient><linearGradient id="lg3"><stop offset="0" stop-color="#ffc5a3" stop-opacity="0"/><stop offset=".2516" stop-color="#ffb197" stop-opacity=".252"/><stop offset=".7613" stop-color="#ff8078" stop-opacity=".761"/><stop offset="1" stop-color="#ff6668"/></linearGradient><linearGradient id="SVGID_11_" gradientUnits="userSpaceOnUse" x1="225.88" x2="225.88" xlink:href="#lg3" y1="575.754" y2="393.379"/><linearGradient id="SVGID_12_" gradientUnits="userSpaceOnUse" x1="286.12" x2="286.12" xlink:href="#lg3" y1="556.533" y2="374.158"/><linearGradient id="lg4"><stop offset="0" stop-color="#ff6668"/><stop offset="1" stop-color="#ffe3f1"/></linearGradient><linearGradient id="SVGID_13_" gradientUnits="userSpaceOnUse" x1="305.84" x2="507.477" xlink:href="#lg4" y1="371.145" y2="169.508"/><linearGradient id="SVGID_14_" gradientTransform="matrix(-1 0 0 1 1712 0)" gradientUnits="userSpaceOnUse" x1="1472.429" x2="1224.379" xlink:href="#lg4" y1="376.342" y2="128.292"/><linearGradient id="SVGID_15_" gradientTransform="matrix(-1 0 0 1 1712 0)" gradientUnits="userSpaceOnUse" x1="1654.212" x2="1386.614" xlink:href="#lg4" y1="372.658" y2="105.061"/><linearGradient id="SVGID_16_" gradientUnits="userSpaceOnUse" x1="-67.861" x2="302.105" xlink:href="#lg4" y1="385.826" y2="15.86"/><g><circle cx="256" cy="256" fill="url(#SVGID_1_)" r="256"/><circle cx="256" cy="256" fill="url(#SVGID_2_)" r="256"/><path d="m225.264 259.777c-5.134 10.249-10.267 20.495-15.388 30.733-.012-21.15-17.118-38.272-38.26-38.204-20.484.056-40.968.132-61.452.229.106-15.216.284-30.431.536-45.647 20.409-.231 40.817-.413 61.226-.547 21.019-.174 53.318 32.261 53.338 53.436z" fill="url(#SVGID_3_)"/><path d="m172.086 191.019c37.84-.321 68.518 30.603 68.546 68.75-.036 65.276.066 130.552.308 195.827-10.04-.026-20.079-.078-30.119-.156-.674-60.57-.988-121.141-.942-181.711.002-28.851-23.233-52.183-51.994-51.986-15.804.097-31.608.218-47.412.361.135-10.144.304-20.288.504-30.431 20.369-.277 40.739-.495 61.109-.654z" fill="url(#SVGID_4_)"/><path d="m172.086 191.019c-20.37.159-40.74.377-61.109.653-.401 20.288-.672 40.575-.813 60.863 20.484-.097 40.968-.173 61.452-.229 21.143-.067 38.248 17.054 38.26 38.204.018 54.976.333 109.953.945 164.929 10.04.079 20.079.131 30.119.156-.242-65.276-.345-130.551-.308-195.827-.027-38.147-30.707-69.068-68.546-68.749z" fill="url(#SVGID_5_)"/><path d="m286.736 259.777c5.134 10.249 10.267 20.495 15.388 30.733.012-21.15 17.118-38.272 38.26-38.204 20.484.056 40.968.132 61.452.229-.105-15.216-.284-30.431-.536-45.647-20.409-.231-40.817-.413-61.226-.547-21.017-.174-53.32 32.261-53.338 53.436z" fill="url(#SVGID_6_)"/><path d="m339.914 191.019c-37.838-.321-68.515 30.603-68.546 68.75.036 65.276-.066 130.552-.308 195.827 10.04-.026 20.079-.078 30.119-.156.674-60.57.988-121.141.942-181.711-.002-28.851 23.232-52.183 51.994-51.986 15.804.097 31.608.218 47.412.361-.135-10.144-.303-20.288-.504-30.431-20.369-.277-40.74-.495-61.109-.654z" fill="url(#SVGID_7_)"/><path d="m339.914 191.019c20.37.159 40.74.377 61.11.653.401 20.288.672 40.575.813 60.863-20.484-.097-40.968-.173-61.452-.229-21.143-.067-38.247 17.054-38.26 38.204-.018 54.976-.333 109.953-.945 164.929-10.04.079-20.079.131-30.119.156.242-65.276.345-130.551.308-195.827.028-38.147 30.705-69.068 68.545-68.749z" fill="url(#SVGID_8_)"/><path d="m301.179 455.439c.102-8.482-6.599-15.307-14.951-15.27-8.352.038-15.142 6.936-15.168 15.427-.025 8.491 6.661 15.358 14.94 15.309 8.278-.049 15.079-6.985 15.179-15.466z" fill="url(#SVGID_9_)"/><path d="m240.94 455.595c-.024-8.491-6.817-15.388-15.168-15.427-8.354-.038-15.049 6.789-14.951 15.27.099 8.48 6.902 15.419 15.179 15.466 8.278.048 14.965-6.818 14.94-15.309z" fill="url(#SVGID_10_)"/><path d="m240.94 455.595c-.024-8.491-6.817-15.388-15.168-15.427-8.354-.038-15.049 6.789-14.951 15.27.099 8.48 6.902 15.419 15.179 15.466 8.278.048 14.965-6.818 14.94-15.309z" fill="url(#SVGID_11_)"/><path d="m301.179 455.439c.102-8.482-6.599-15.307-14.951-15.27-8.352.038-15.142 6.936-15.168 15.427-.025 8.491 6.661 15.358 14.94 15.309 8.278-.049 15.079-6.985 15.179-15.466z" fill="url(#SVGID_12_)"/><path d="m348.616 240.503c-.862 1.277-1.819 2.58-2.9 3.928-21.343 26.549-15.23 66.189 12.017 86.602 27.208 20.433 64.686 12.133 88.548-12.477 1.576-1.631 3.09-3.307 4.544-5.022-33.848-23.944-68.05-48.412-102.209-73.031z" fill="url(#SVGID_13_)"/><path d="m442.911 126.58c-24.336-25.188-60.936-34.192-87.205-14.087-26.289 20.086-32.039 59.696-10.361 86.458 6.513 8.078 9.09 14.578 9.164 22.792.06 6.831-1.637 12.456-5.892 18.759-1.743 24.344 8.828 49.446 29.803 65.11 21.585 16.137 48.415 17.332 72.406 7.921 21.074-24.836 29.195-58.073 28.488-90.533-.683-34.691-11.512-70.583-36.403-96.42z" fill="url(#SVGID_14_)"/><path d="m163.384 240.503c.862 1.277 1.82 2.58 2.9 3.928 21.34 26.549 15.232 66.189-12.017 86.602-27.21 20.433-64.684 12.133-88.548-12.477-1.578-1.631-3.091-3.307-4.544-5.022 33.849-23.944 68.049-48.412 102.209-73.031z" fill="url(#SVGID_15_)"/><path d="m69.089 126.58c24.337-25.188 60.935-34.192 87.205-14.087 26.287 20.086 32.04 59.696 10.362 86.458-6.513 8.078-9.089 14.578-9.163 22.792-.062 6.831 1.639 12.456 5.892 18.759 1.746 24.344-8.829 49.446-29.803 65.11-21.584 16.137-48.415 17.332-72.406 7.921-21.075-24.836-29.199-58.073-28.49-90.533.681-34.691 11.513-70.583 36.403-96.42z" fill="url(#SVGID_16_)"/></g></svg>