<svg id="Capa_1" enable-background="new 0 0 512 512" height="512" viewBox="0 0 512 512" width="512" xmlns="http://www.w3.org/2000/svg"><g><path d="m211 406h-30v-38.789l-4.395 4.394-21.21-21.21 55.605-55.606z" fill="#f03800"/><g><path d="m426.761 403.832-17.432 24.404 10.866 7.764h-164.195-164.191l7.669-5.479-17.432-24.404-62.857 44.883 62.784 45 17.431-24.404-7.769-5.596h164.365 164.535l-7.705 5.596 17.432 24.404 62.549-45z" fill="#5a5a5a"/><path d="m412.83 471.596 17.432 24.404 62.549-45-66.05-47.168-17.432 24.404 10.866 7.764h-164.195v30h164.535z" fill="#444"/><path d="m286 339.789-30-30-15-15v111.211h15 15v-38.789l15 15 15-15v38.789h30v-111.211z" fill="#ff641a"/><path d="m271 367.211 15 15 15-15v38.789h30v-111.211l-45 45-30-30v96.211h15z" fill="#f03800"/></g><path d="m437 106c-41.353 0-75 33.647-75 75v36.211l30 30v128.789h45 45v-128.789l30-30v-36.211c0-41.353-33.647-75-75-75z" fill="#e681fa"/><path d="m482 247.211 30-30v-36.211c0-41.353-33.647-75-75-75v270h45z" fill="#c567ea"/><circle cx="437" cy="61" fill="#ffd5cc" r="45"/><path d="m482 61c0-24.853-20.147-45-45-45v90c24.853 0 45-20.147 45-45z" fill="#ffbfab"/><path d="m75 106c-41.353 0-75 33.647-75 75v36.211l30 30v128.789h45 45v-128.789l30-30v-36.211c0-41.353-33.647-75-75-75z" fill="#64e1dc"/><path d="m120 247.211 30-30v-36.211c0-41.353-33.647-75-75-75v270h45z" fill="#00c8c8"/><circle cx="75" cy="61" fill="#ffd5cc" r="45"/><path d="m120 61c0-24.853-20.147-45-45-45v90c24.853 0 45-20.147 45-45z" fill="#ffbfab"/></g></svg>