<svg id="Layer_1" enable-background="new 0 0 512 512" height="512" viewBox="0 0 512 512" width="512" xmlns="http://www.w3.org/2000/svg"><g><g><path d="m441.002 214.002c-4.825 0-9.471-2.335-12.327-6.452l-60-86.5c-1.742-2.511-2.675-5.494-2.675-8.549v-49c0-8.284 6.716-15 15-15h60c8.284 0 15 6.716 15 15v135.5c0 6.559-4.261 12.357-10.521 14.315-1.478.462-2.986.686-4.477.686z" fill="#00347b"/></g><g><path d="m456.042 500h-404.042v-313.536c0-4.392 1.925-8.564 5.267-11.414l187-159.464c5.566-4.747 13.747-4.786 19.358-.09l187.042 156.501c3.406 2.85 5.375 7.063 5.375 11.504z" fill="#fff4f4"/></g><path d="m450.667 171.997-187.041-156.501c-2.242-1.876-4.894-2.983-7.625-3.349v487.853h200.042v-316.499c-.001-4.441-1.97-8.654-5.376-11.504z" fill="#f6efea"/><g><path d="m471 512h-430c-8.284 0-15-6.716-15-15s6.716-15 15-15h430c8.284 0 15 6.716 15 15s-6.716 15-15 15z" fill="#bee75e"/></g><g><path d="m496.994 239.501c-3.489 0-6.994-1.21-9.834-3.679l-231.16-200.946-231.159 200.945c-6.252 5.435-15.727 4.773-21.162-1.48-5.435-6.252-4.772-15.727 1.48-21.162l241-209.5c5.644-4.905 14.038-4.905 19.682 0l241 209.5c6.252 5.435 6.915 14.91 1.48 21.162-2.966 3.412-7.135 5.16-11.327 5.16z" fill="#ff8856"/></g><g><path d="m297.02 248h-82.04c-8.284 0-15-6.716-15-15v-36.593c0-15.15 12.479-27.475 27.819-27.475h56.403c15.339 0 27.818 12.325 27.818 27.475v36.593c0 8.284-6.715 15-15 15zm-67.04-30h52.041v-19.068h-52.041z" fill="#fdbf00"/></g><path d="m284.202 168.932h-28.202v30h26.02v19.068h-26.02v30h41.02c8.284 0 15-6.716 15-15v-36.593c0-15.15-12.479-27.475-27.818-27.475z" fill="#ff8856"/><g><path d="m362.98 453.001h-213.959c-8.284 0-15-6.716-15-15v-176.432c0-8.284 6.716-15 15-15h213.959c8.284 0 15 6.716 15 15v176.432c0 8.284-6.716 15-15 15z" fill="#00429d"/></g><path d="m362.98 246.569h-106.98v206.432h106.98c8.284 0 15-6.716 15-15v-176.432c0-8.284-6.716-15-15-15z" fill="#00347b"/><g><path d="m318.49 351.001h-124.98c-42.728 0-77.49-29.593-77.49-65.967v-54.033c0-8.284 6.716-15 15-15h249.96c8.284 0 15 6.716 15 15v54.033c0 36.374-34.762 65.967-77.49 65.967z" fill="#4793ff"/></g><path d="m380.98 216.001h-124.98v135h62.49c42.728 0 77.489-29.593 77.489-65.967v-54.033c.001-8.285-6.715-15-14.999-15z" fill="#525cdd"/><path d="m506.841 213.18-241-209.5c-2.822-2.453-6.331-3.679-9.841-3.679v34.875l231.159 200.946c2.84 2.469 6.345 3.68 9.834 3.679 4.192 0 8.361-1.747 11.327-5.159 5.436-6.253 4.773-15.727-1.479-21.162z" fill="#ff435b"/><path d="m471 482h-215v30h215c8.284 0 15-6.716 15-15s-6.716-15-15-15z" fill="#00cb75"/><g clip-rule="evenodd" fill-rule="evenodd"><path d="m241 366.967h30c8.284 0 15-6.716 15-15v-30c0-8.284-6.716-15-15-15h-30c-8.284 0-15 6.716-15 15v30c0 8.284 6.716 15 15 15z" fill="#fdbf00"/><path d="m271 306.967h-15v60h15c8.284 0 15-6.716 15-15v-30c0-8.284-6.716-15-15-15z" fill="#ff8856"/></g></g></svg>